# Blender v2.93.4 OBJ File: 'Skycube.blend'
# www.blender.org
mtllib Skycube.mtl
o Cube
v 1.000000 1.000000 -1.000000
v 1.000000 -1.000000 -1.000000
v 1.000000 1.000000 1.000000
v 1.000000 -1.000000 1.000000
v -1.000000 1.000000 -1.000000
v -1.000000 -1.000000 -1.000000
v -1.000000 1.000000 1.000000
v -1.000000 -1.000000 1.000000
vt 0.500090 0.666667
vt 0.500257 1.000000
vt 0.249995 1.000126
vt 0.249827 0.666792
vt 0.249660 0.333459
vt -0.000436 0.666918
vt -0.000603 0.333584
vt 1.000448 0.333082
vt 1.000615 0.666415
vt 0.750353 0.666541
vt 0.750185 0.333208
vt 0.499755 0.000000
vt 0.499922 0.333333
vt 0.249492 0.000126
vn 0.0000 1.0000 0.0000
vn 0.0000 0.0000 1.0000
vn -1.0000 0.0000 0.0000
vn 0.0000 -1.0000 0.0000
vn 1.0000 0.0000 0.0000
vn 0.0000 0.0000 -1.0000
usemtl Material.001
s off
f 1/1/1 5/2/1 7/3/1 3/4/1
f 4/5/2 3/4/2 7/6/2 8/7/2
f 8/8/3 7/9/3 5/10/3 6/11/3
f 6/12/4 2/13/4 4/5/4 8/14/4
f 2/13/5 1/1/5 3/4/5 4/5/5
f 6/11/6 5/10/6 1/1/6 2/13/6
